<?xml version="1.0" encoding="UTF-8"?>
<svg id="Livello_2" data-name="Livello 2" xmlns="http://www.w3.org/2000/svg" viewBox="0 0 221.89 221.89">
  <defs>
    <style>
      .cls-1 {
        fill: #054df5;
      }

      .cls-2 {
        fill: #fffff5;
      }
    </style>
  </defs>
  <g id="Livello_1-2" data-name="Livello 1">
    <g>
      <path class="cls-1" d="M162.89,221.89H59C26.42,221.89,0,195.47,0,162.89V59C0,26.42,26.42,0,59,0h103.88c32.59,0,59,26.42,59,59v103.88c0,32.59-26.42,59-59,59"/>
      <path class="cls-2" d="M98.19,115.75c-.21,2.36-.8,3.89-1.52,4.88-.06,.11-.59,.93-1.73,1.42-.63,.27-1.48,.44-2.53,.33-1.05-.11-1.84-.46-2.41-.85-1.01-.72-1.36-1.64-1.4-1.75-.5-1.12-.76-2.74-.47-5.09,.97-7.95,2.05-18.41,3.08-23.33l-17.28-1.82-.1,1.19-2.52,24s-1.1,7.75,3.6,13.71c0,0,.64,1.01,2.23,2.3,.53,.43,1.08,.82,1.65,1.18,.02,.01,.05,.03,.07,.04,.07,.05,.15,.09,.22,.14,2.51,1.53,6.37,3.1,11.9,3.68s9.63-.15,12.4-1.12c.08-.03,.16-.06,.24-.09,.03,0,.05-.02,.08-.03,.63-.23,1.26-.5,1.86-.81,1.82-.93,2.66-1.79,2.66-1.79,5.84-4.86,6.37-12.66,6.37-12.66l2.52-24,.15-1.18-17.26-1.81c-.01,5.02-1.13,15.48-1.84,23.46"/>
      <path class="cls-2" d="M151.79,105.77c7.38-.03,15.05,.48,15.05,.48l-.5-14.55h-45.93l-.5,14.55s7.67-.51,15.05-.48c0,0,.17,19.38-.79,28.96h18.43c-.96-9.58-.79-28.96-.79-28.96"/>
      <path class="cls-2" d="M185.45,125.16c11.76-12.82,16.32-26.2,12.84-37.99h0c-7.61-25.83-52.23-35.51-99.47-21.59-20.27,5.97-37.77,15.34-50.55,26.13H22.96l-.5,14.55s5.96-.4,12.43-.47c-7.77,10.63-10.92,21.76-7.93,31.88,3.74,12.67,16.25,21.86,35.24,25.87,6.81,1.44,14.16,2.15,21.86,2.15,13.43,0,27.92-2.17,42.37-6.43,18.92-5.58,35.91-14.2,48.9-24.67l9.48,1c.03-.78,.21-4.84,.64-10.41m-59.83,31.34c-22.29,6.57-44.6,8.07-62.83,4.22-17.91-3.78-29.66-12.26-33.09-23.88-2.8-9.5,.28-19.98,7.81-30.03,.02,4.16,.03,19.66-.8,27.91h18.43c-.96-9.58-.79-28.96-.79-28.96,7.38-.03,15.04,.48,15.04,.48l-.5-14.55h-16.26c12.22-9.58,28.42-17.9,46.99-23.38,14.52-4.28,28.77-6.31,41.69-6.31,27.75,0,49.34,9.37,54.22,25.96,2.92,9.92-.52,21.22-9.69,32.34,.08-.89,.16-1.79,.26-2.71,1.02-9.22,2.28-16.75,2.47-17.84l-17.98-1.89c-.05,1.11-.38,8.74-1.3,17.97-1.02,9.22-2.28,16.75-2.47,17.84l4.4,.46c-12.38,9.43-28.15,17.21-45.62,22.36"/>
      <path class="cls-2" d="M181.61,94.08l.02-.02c1.13-1.71,2.33-3.43,3.59-5.14,1.27-1.72,2.55-3.37,3.85-4.96h0c-2.54-1.79-5.12-3.65-7.72-5.57-2.59-1.91-5.11-3.81-7.54-5.69-1.13,1.71-2.33,3.43-3.6,5.15-1.27,1.72-2.56,3.39-3.87,4.98,2.52,1.77,5.08,3.62,7.67,5.52,2.6,1.92,5.14,3.84,7.6,5.73"/>
    </g>
  </g>
</svg>