<?xml version="1.0" encoding="UTF-8"?>
<svg id="Livello_2" data-name="Livello 2" xmlns="http://www.w3.org/2000/svg" viewBox="0 0 221.89 221.89">
  <defs>
    <style>
      .cls-1 {
        fill: #054df5;
      }

      .cls-2 {
        fill: #fffff5;
      }
    </style>
  </defs>
  <g id="Livello_1-2" data-name="Livello 1">
    <g>
      <path class="cls-1" d="M110.94,221.89h0C49.67,221.89,0,172.22,0,110.94S49.67,0,110.94,0s110.94,49.67,110.94,110.94-49.67,110.94-110.94,110.94"/>
      <path class="cls-2" d="M26.83,138.59c5.98,20.71,31.03,32.88,62.04,32.88,11.73,0,24.31-1.74,37.04-5.42,46.39-13.4,77.42-47.52,69.17-76.06-3.57-12.35-13.92-21.65-28.26-27.16l-.33-9.41H49.68l-1.17,33.99c-2.61,2.26-5.05,4.6-7.3,7.03-13.32,14.44-18.43,30.12-14.38,44.15m104.41,21.15c-2.12-25.2-1.73-70.55-1.73-70.55,18.77-.07,38.26,1.23,38.26,1.23l-.79-22.95c12.15,5.06,20.81,13.15,23.87,23.74,7.19,24.89-19.22,54.69-59.61,68.53M44.45,97.43c2.31-2.5,4.83-4.91,7.54-7.22,6.48-.37,20.77-1.07,34.68-1.02,0,0,.44,58.95-2.83,77.83-26.68-1.13-47.64-11.88-52.77-29.65-3.61-12.49,1.14-26.68,13.38-39.94"/>
    </g>
  </g>
</svg>